name Run_200 02_newCOP3_v24.mot																		
datacolumns 19																		
datarows 122																		
range 1.455 1.576																		
endheader																		
                time	   ground_force_vx	   ground_force_vy	 ground_force_vz	   ground_force_px	   ground_force_py	   ground_force_pz	   l_ground_force_vx	  l_ground_force_vy	   l_ground_force_vz	   l_ground_force_px	   l_ground_force_py	   l_ground_force_pz	   ground_torque_x	   ground_torque_y	  ground_torque_z	   l_ground_torque_x	  l_ground_torque_y	 l_ground_torque_z
1.455	0	0	0	0	0	0	-121.123337	1413.692261	17.397583	1.037497	0	-0.37728	0	0	0	0	-0.445449	0
1.456	0	0	0	0	0	0	-119.596519	1426.084351	17.473429	1.036174	0	-0.377276	0	0	0	0	-0.379417	0
1.457	0	0	0	0	0	0	-118.070572	1437.937378	17.540813	1.034872	0	-0.377287	0	0	0	0	-0.318603	0
1.458	0	0	0	0	0	0	-116.551338	1449.244995	17.60261	1.033588	0	-0.377312	0	0	0	0	-0.262964	0
1.459	0	0	0	0	0	0	-115.04258	1460.005981	17.661991	1.03232	0	-0.37735	0	0	0	0	-0.212448	0
1.46	0	0	0	0	0	0	-113.546112	1470.223145	17.722332	1.031065	0	-0.377398	0	0	0	0	-0.166989	0
1.461	0	0	0	0	0	0	-112.061966	1479.90271	17.78709	1.029821	0	-0.377456	0	0	0	0	-0.126509	0
1.462	0	0	0	0	0	0	-110.588608	1489.054443	17.859718	1.028584	0	-0.37752	0	0	0	0	-0.090918	0
1.463	0	0	0	0	0	0	-109.123215	1497.690063	17.943563	1.02735	0	-0.37759	0	0	0	0	-0.060116	0
1.464	0	0	0	0	0	0	-107.66198	1505.82373	18.041775	1.026118	0	-0.377663	0	0	0	0	-0.033993	0
1.465	0	0	0	0	0	0	-106.200447	1513.470459	18.157234	1.024883	0	-0.377738	0	0	0	0	-0.012428	0
1.466	0	0	0	0	0	0	-104.733803	1520.646484	18.292477	1.023644	0	-0.377813	0	0	0	0	0.004711	0
1.467	0	0	0	0	0	0	-103.257202	1527.368164	18.449648	1.022398	0	-0.377888	0	0	0	0	0.017563	0
1.468	0	0	0	0	0	0	-101.76606	1533.651978	18.630463	1.021142	0	-0.377961	0	0	0	0	0.02628	0
1.469	0	0	0	0	0	0	-100.256241	1539.51416	18.836166	1.019877	0	-0.378031	0	0	0	0	0.031019	0
1.47	0	0	0	0	0	0	-98.724297	1544.969971	19.067537	1.0186	0	-0.378097	0	0	0	0	0.031948	0
1.471	0	0	0	0	0	0	-97.16758	1550.033936	19.324879	1.017312	0	-0.37816	0	0	0	0	0.029243	0
1.472	0	0	0	0	0	0	-95.58432	1554.71936	19.608034	1.016012	0	-0.37822	0	0	0	0	0.023086	0
1.473	0	0	0	0	0	0	-93.973671	1559.038208	19.916416	1.014701	0	-0.378275	0	0	0	0	0.013669	0
1.474	0	0	0	0	0	0	-92.335678	1563.001343	20.249031	1.013379	0	-0.378326	0	0	0	0	0.001189	0
1.475	0	0	0	0	0	0	-90.671211	1566.618042	20.604536	1.012048	0	-0.378374	0	0	0	0	-0.014148	0
1.476	0	0	0	0	0	0	-88.981903	1569.896606	20.981279	1.01071	0	-0.37842	0	0	0	0	-0.032133	0
1.477	0	0	0	0	0	0	-87.270027	1572.84375	21.377356	1.009366	0	-0.378463	0	0	0	0	-0.052548	0
1.478	0	0	0	0	0	0	-85.538361	1575.465576	21.790668	1.008019	0	-0.378505	0	0	0	0	-0.075172	0
1.479	0	0	0	0	0	0	-83.790047	1577.766846	22.218983	1.006671	0	-0.378546	0	0	0	0	-0.099779	0
1.48	0	0	0	0	0	0	-82.028465	1579.752075	22.659983	1.005323	0	-0.378588	0	0	0	0	-0.126136	0
1.481	0	0	0	0	0	0	-80.257103	1581.424927	23.111334	1.003978	0	-0.37863	0	0	0	0	-0.154009	0
1.482	0	0	0	0	0	0	-78.479378	1582.789063	23.570721	1.002638	0	-0.378674	0	0	0	0	-0.183159	0
1.483	0	0	0	0	0	0	-76.698578	1583.848145	24.035906	1.001304	0	-0.37872	0	0	0	0	-0.213345	0
1.484	0	0	0	0	0	0	-74.917671	1584.605713	24.504763	0.999979	0	-0.37877	0	0	0	0	-0.244323	0
1.485	0	0	0	0	0	0	-73.139275	1585.06604	24.975311	0.998663	0	-0.378822	0	0	0	0	-0.275848	0
1.486	0	0	0	0	0	0	-71.365501	1585.233398	25.445745	0.997359	0	-0.378879	0	0	0	0	-0.30767	0
1.487	0	0	0	0	0	0	-69.597931	1585.113159	25.914454	0.996066	0	-0.37894	0	0	0	0	-0.339543	0
1.488	0	0	0	0	0	0	-67.837532	1584.710938	26.380033	0.994785	0	-0.379005	0	0	0	0	-0.371217	0
1.489	0	0	0	0	0	0	-66.084641	1584.033203	26.84129	0.993516	0	-0.379075	0	0	0	0	-0.402442	0
1.49	0	0	0	0	0	0	-64.338959	1583.086914	27.297245	0.992259	0	-0.37915	0	0	0	0	-0.432971	0
1.491	0	0	0	0	0	0	-62.599552	1581.879639	27.747128	0.991015	0	-0.379229	0	0	0	0	-0.462554	0
1.492	0	0	0	0	0	0	-60.864902	1580.419434	28.190361	0.989782	0	-0.379312	0	0	0	0	-0.490944	0
1.493	0	0	0	0	0	0	-59.132969	1578.714844	28.626549	0.988559	0	-0.3794	0	0	0	0	-0.517897	0
1.494	0	0	0	0	0	0	-57.401268	1576.774292	29.055449	0.987345	0	-0.37949	0	0	0	0	-0.543169	0
1.495	0	0	0	0	0	0	-55.666977	1574.606934	29.476957	0.98614	0	-0.379584	0	0	0	0	-0.566518	0
1.496	0	0	0	0	0	0	-53.927044	1572.221191	29.891081	0.984941	0	-0.379681	0	0	0	0	-0.587707	0
1.497	0	0	0	0	0	0	-52.178322	1569.625732	30.297899	0.983748	0	-0.37978	0	0	0	0	-0.606499	0
1.498	0	0	0	0	0	0	-50.417664	1566.828979	30.697552	0.982559	0	-0.37988	0	0	0	0	-0.622665	0
1.499	0	0	0	0	0	0	-48.642071	1563.838501	31.090193	0.981372	0	-0.379981	0	0	0	0	-0.635976	0
1.5	0	0	0	0	0	0	-46.848797	1560.661743	31.475967	0.980186	0	-0.380083	0	0	0	0	-0.646209	0
1.501	0	0	0	0	0	0	-45.035442	1557.30542	31.85499	0.979	0	-0.380185	0	0	0	0	-0.653144	0
1.502	0	0	0	0	0	0	-43.200054	1553.775391	32.227303	0.977813	0	-0.380286	0	0	0	0	-0.65657	0
1.503	0	0	0	0	0	0	-41.34119	1550.076904	32.592865	0.976623	0	-0.380386	0	0	0	0	-0.656277	0
1.504	0	0	0	0	0	0	-39.45797	1546.214478	32.951519	0.97543	0	-0.380484	0	0	0	0	-0.652063	0
1.505	0	0	0	0	0	0	-37.550098	1542.19165	33.302982	0.974233	0	-0.380581	0	0	0	0	-0.643733	0
1.506	0	0	0	0	0	0	-35.617886	1538.011597	33.646824	0.973031	0	-0.380675	0	0	0	0	-0.631097	0
1.507	0	0	0	0	0	0	-33.662228	1533.676392	33.98246	0.971825	0	-0.380767	0	0	0	0	-0.613973	0
1.508	0	0	0	0	0	0	-31.684576	1529.187744	34.309135	0.970615	0	-0.380857	0	0	0	0	-0.592186	0
1.509	0	0	0	0	0	0	-29.686899	1524.546753	34.625938	0.969401	0	-0.380944	0	0	0	0	-0.565571	0
1.51	0	0	0	0	0	0	-27.671614	1519.754028	34.931793	0.968183	0	-0.381028	0	0	0	0	-0.533968	0
1.511	0	0	0	0	0	0	-25.641521	1514.809937	35.225464	0.966963	0	-0.381109	0	0	0	0	-0.497228	0
1.512	0	0	0	0	0	0	-23.599718	1509.7146	35.505577	0.965741	0	-0.381188	0	0	0	0	-0.455212	0
1.513	0	0	0	0	0	0	-21.549513	1504.468018	35.77063	0.964519	0	-0.381265	0	0	0	0	-0.407789	0
1.514	0	0	0	0	0	0	-19.494324	1499.070068	36.019005	0.963297	0	-0.381339	0	0	0	0	-0.354841	0
1.515	0	0	0	0	0	0	-17.43759	1493.520996	36.249008	0.962077	0	-0.38141	0	0	0	0	-0.296257	0
1.516	0	0	0	0	0	0	-15.382662	1487.820801	36.458874	0.960861	0	-0.38148	0	0	0	0	-0.23194	0
1.517	0	0	0	0	0	0	-13.332705	1481.970337	36.646816	0.959649	0	-0.381547	0	0	0	0	-0.161805	0
1.518	0	0	0	0	0	0	-11.290604	1475.970215	36.811028	0.958442	0	-0.381613	0	0	0	0	-0.085778	0
1.519	0	0	0	0	0	0	-9.258862	1469.821655	36.94973	0.957242	0	-0.381677	0	0	0	0	-0.003799	0
1.52	0	0	0	0	0	0	-7.239531	1463.526245	37.061192	0.95605	0	-0.381739	0	0	0	0	0.084181	0
1.521	0	0	0	0	0	0	-5.234129	1457.085815	37.143753	0.954866	0	-0.3818	0	0	0	0	0.178194	0
1.522	0	0	0	0	0	0	-3.243595	1450.502563	37.195862	0.953692	0	-0.381859	0	0	0	0	0.278261	0
1.523	0	0	0	0	0	0	-1.268253	1443.779297	37.216064	0.952526	0	-0.381916	0	0	0	0	0.384387	0
1.524	0	0	0	0	0	0	0.692195	1436.918579	37.203056	0.951369	0	-0.381972	0	0	0	0	0.496562	0
1.525	0	0	0	0	0	0	2.63866	1429.923462	37.15567	0.950222	0	-0.382025	0	0	0	0	0.614761	0
1.526	0	0	0	0	0	0	4.572622	1422.797241	37.072899	0.949083	0	-0.382077	0	0	0	0	0.738943	0
1.527	0	0	0	0	0	0	6.49607	1415.542847	36.953896	0.947951	0	-0.382125	0	0	0	0	0.869051	0
1.528	0	0	0	0	0	0	8.411416	1408.163574	36.79797	0.946826	0	-0.382171	0	0	0	0	1.005014	0
1.529	0	0	0	0	0	0	10.321399	1400.662354	36.604584	0.945707	0	-0.382214	0	0	0	0	1.146742	0
1.53	0	0	0	0	0	0	12.228961	1393.042236	36.37336	0.944591	0	-0.382253	0	0	0	0	1.294129	0
1.531	0	0	0	0	0	0	14.137136	1385.305664	36.10405	0.943478	0	-0.382288	0	0	0	0	1.447053	0
1.532	0	0	0	0	0	0	16.048914	1377.454956	35.796539	0.942365	0	-0.382318	0	0	0	0	1.605375	0
1.533	0	0	0	0	0	0	17.967123	1369.49231	35.450832	0.941251	0	-0.382343	0	0	0	0	1.768939	0
1.534	0	0	0	0	0	0	19.894308	1361.419189	35.067032	0.940134	0	-0.382362	0	0	0	0	1.937572	0
1.535	0	0	0	0	0	0	21.832626	1353.237061	34.645321	0.939013	0	-0.382376	0	0	0	0	2.111085	0
1.536	0	0	0	0	0	0	23.783752	1344.946777	34.185974	0.937885	0	-0.382383	0	0	0	0	2.289274	0
1.537	0	0	0	0	0	0	25.748808	1336.549072	33.689327	0.936748	0	-0.382383	0	0	0	0	2.471914	0
1.538	0	0	0	0	0	0	27.728294	1328.043945	33.155769	0.935602	0	-0.382375	0	0	0	0	2.658768	0
1.539	0	0	0	0	0	0	29.722073	1319.431641	32.585739	0.934446	0	-0.38236	0	0	0	0	2.849583	0
1.54	0	0	0	0	0	0	31.729347	1310.71167	31.979736	0.933277	0	-0.382338	0	0	0	0	3.044088	0
1.541	0	0	0	0	0	0	33.748684	1301.883545	31.338301	0.932096	0	-0.382308	0	0	0	0	3.242	0
1.542	0	0	0	0	0	0	35.778038	1292.946655	30.662025	0.930901	0	-0.38227	0	0	0	0	3.443021	0
1.543	0	0	0	0	0	0	37.814823	1283.900391	29.951567	0.929692	0	-0.382224	0	0	0	0	3.646837	0
1.544	0	0	0	0	0	0	39.85598	1274.743652	29.207644	0.928469	0	-0.382172	0	0	0	0	3.853124	0
1.545	0	0	0	0	0	0	41.898064	1265.47583	28.431055	0.927233	0	-0.382112	0	0	0	0	4.061543	0
1.546	0	0	0	0	0	0	43.937359	1256.096313	27.622698	0.925982	0	-0.382045	0	0	0	0	4.271745	0
1.547	0	0	0	0	0	0	45.969963	1246.604492	26.783567	0.924717	0	-0.381972	0	0	0	0	4.483369	0
1.548	0	0	0	0	0	0	47.991905	1237.000122	25.91478	0.923439	0	-0.381894	0	0	0	0	4.696045	0
1.549	0	0	0	0	0	0	49.999233	1227.283203	25.017586	0.922149	0	-0.38181	0	0	0	0	4.909393	0
1.55	0	0	0	0	0	0	51.98811	1217.454346	24.093384	0.920847	0	-0.381722	0	0	0	0	5.123027	0
1.551	0	0	0	0	0	0	53.954891	1207.514038	23.14373	0.919534	0	-0.381629	0	0	0	0	5.336553	0
1.552	0	0	0	0	0	0	55.896187	1197.463867	22.170345	0.918212	0	-0.381533	0	0	0	0	5.54957	0
1.553	0	0	0	0	0	0	57.80891	1187.305542	21.175127	0.916881	0	-0.381433	0	0	0	0	5.761673	0
1.554	0	0	0	0	0	0	59.690323	1177.04126	20.160152	0.915542	0	-0.381331	0	0	0	0	5.972456	0
1.555	0	0	0	0	0	0	61.53804	1166.67395	19.127676	0.914197	0	-0.381226	0	0	0	0	6.181509	0
1.556	0	0	0	0	0	0	63.350067	1156.206909	18.080128	0.912847	0	-0.381119	0	0	0	0	6.388421	0
1.557	0	0	0	0	0	0	65.124794	1145.644165	17.020109	0.911493	0	-0.38101	0	0	0	0	6.592782	0
1.558	0	0	0	0	0	0	66.860977	1134.989868	15.950377	0.910136	0	-0.3809	0	0	0	0	6.794184	0
1.559	0	0	0	0	0	0	68.557747	1124.248901	14.873838	0.908777	0	-0.380788	0	0	0	0	6.992223	0
1.56	0	0	0	0	0	0	70.214584	1113.426147	13.793528	0.907416	0	-0.380674	0	0	0	0	7.1865	0
1.561	0	0	0	0	0	0	71.831268	1102.5271	12.712585	0.906055	0	-0.380559	0	0	0	0	7.376619	0
1.562	0	0	0	0	0	0	73.407898	1091.557373	11.634243	0.904695	0	-0.380443	0	0	0	0	7.562196	0
1.563	0	0	0	0	0	0	74.944801	1080.522461	10.56179	0.903334	0	-0.380325	0	0	0	0	7.742852	0
1.564	0	0	0	0	0	0	76.442543	1069.428467	9.498551	0.901974	0	-0.380205	0	0	0	0	7.918221	0
1.565	0	0	0	0	0	0	77.901863	1058.280762	8.447857	0.900615	0	-0.380084	0	0	0	0	8.087946	0
1.566	0	0	0	0	0	0	79.323647	1047.085327	7.413015	0.899257	0	-0.379961	0	0	0	0	8.251685	0
1.567	0	0	0	0	0	0	80.708862	1035.847656	6.397278	0.897898	0	-0.379835	0	0	0	0	8.409109	0
1.568	0	0	0	0	0	0	82.058571	1024.572998	5.403817	0.89654	0	-0.379708	0	0	0	0	8.559905	0
1.569	0	0	0	0	0	0	83.373817	1013.266479	4.435689	0.895181	0	-0.379578	0	0	0	0	8.703775	0
1.57	0	0	0	0	0	0	84.655655	1001.933044	3.495809	0.893821	0	-0.379445	0	0	0	0	8.840441	0
1.571	0	0	0	0	0	0	85.90509	990.577271	2.586923	0.89246	0	-0.379309	0	0	0	0	8.96964	0
1.572	0	0	0	0	0	0	87.123024	979.203552	1.711582	0.891095	0	-0.37917	0	0	0	0	9.091131	0
1.573	0	0	0	0	0	0	88.310265	967.815918	0.872118	0.889728	0	-0.379027	0	0	0	0	9.204693	0
1.574	0	0	0	0	0	0	89.467461	956.418091	0.070622	0.888357	0	-0.378881	0	0	0	0	9.310123	0
1.575	0	0	0	0	0	0	90.595085	945.013489	-0.691073	0.886982	0	-0.378731	0	0	0	0	9.407244	0
1.576	0	0	0	0	0	0	91.693413	933.605347	-1.41141	0.885601	0	-0.378577	0	0	0	0	9.495898	0
